<svg width="3483" height="810" viewBox="0 0 3483 810" fill="none" xmlns="http://www.w3.org/2000/svg">
<g clip-path="url(#clip0_44_41)">
<path d="M326.173 435.372C375.088 435.381 422.184 453.96 457.988 487.372C493.791 520.784 515.646 566.549 519.154 615.461C519.29 619.012 520.776 622.376 523.307 624.864C525.838 627.352 529.223 628.775 532.767 628.84H637.932C639.836 628.842 641.72 628.458 643.472 627.712C645.224 626.966 646.808 625.873 648.129 624.499C649.45 623.125 650.48 621.498 651.159 619.715C651.838 617.932 652.151 616.03 652.079 614.123C649.483 529.053 613.905 448.35 552.904 389.158C491.903 329.966 410.286 296.951 325.391 297.125C240.496 297.299 159.014 330.649 98.2555 390.091C37.4967 449.533 2.24896 530.381 0.000563838 615.461C-0.0348145 617.358 0.303069 619.245 0.994915 621.011C1.68676 622.778 2.71901 624.391 4.03271 625.757C5.34641 627.124 6.91581 628.218 8.65127 628.977C10.3867 629.735 12.2543 630.143 14.1472 630.178H119.579C121.46 630.144 123.316 629.734 125.037 628.972C126.758 628.21 128.31 627.112 129.602 625.742C130.895 624.371 131.901 622.756 132.564 620.991C133.226 619.225 133.53 617.345 133.459 615.461C136.903 566.572 158.701 520.809 194.461 487.391C230.221 453.973 277.286 435.385 326.173 435.372Z" fill="#3355FF"/>
<path d="M624.052 69.5732H28.2932C12.6673 69.5732 0 82.2726 0 97.938V172.596C0 188.261 12.6673 200.961 28.2932 200.961H624.052C639.678 200.961 652.345 188.261 652.345 172.596V97.938C652.345 82.2726 639.678 69.5732 624.052 69.5732Z" fill="#3355FF"/>
<path d="M1338.86 240.833C1318.71 219.596 1294.47 202.687 1267.6 191.132C1240.74 179.578 1211.81 173.62 1182.58 173.62C1153.34 173.62 1124.41 179.578 1097.55 191.132C1070.68 202.687 1046.44 219.596 1026.3 240.833C984.498 285.301 962.031 344.594 963.837 405.669V810H1064.73V598.335C1076.61 606.525 1089.1 613.772 1102.1 620.01C1127.13 631.786 1154.53 637.645 1182.18 637.136C1211.49 637.67 1240.59 632.013 1267.59 620.534C1294.58 609.054 1318.86 592.009 1338.86 570.505C1380.85 525.91 1403.51 466.443 1401.85 405.134C1402.64 374.94 1397.49 344.885 1386.68 316.691C1375.87 288.497 1359.62 262.719 1338.86 240.833ZM1064.73 404.866C1064.08 370.084 1076.57 336.34 1099.7 310.406C1109.72 298.564 1122.19 289.051 1136.25 282.526C1150.31 276.001 1165.62 272.621 1181.11 272.621C1196.6 272.621 1211.91 276.001 1225.96 282.526C1240.02 289.051 1252.49 298.564 1262.52 310.406C1274.6 323 1284.04 337.897 1290.27 354.214C1296.51 370.532 1299.41 387.938 1298.82 405.401C1299.39 422.822 1296.48 440.182 1290.24 456.453C1284.01 472.724 1274.58 487.576 1262.52 500.129C1246.93 517.811 1226.06 529.969 1203.02 534.791C1179.98 539.613 1156 536.841 1134.66 526.888C1118.26 517.89 1103.39 506.328 1090.62 492.636C1073.77 475.718 1064.19 452.859 1063.93 428.949L1064.73 404.866Z" fill="white"/>
<path d="M1518.49 118.81C1526.27 118.952 1534 117.507 1541.2 114.563C1548.4 111.619 1554.94 107.238 1560.4 101.685C1566.01 96.1903 1570.44 89.6071 1573.42 82.3375C1576.4 75.0679 1577.88 67.2647 1577.75 59.405C1577.73 47.6332 1574.24 36.1301 1567.71 26.3431C1561.19 16.5562 1551.92 8.92269 1541.08 4.40319C1530.23 -0.116314 1518.3 -1.31989 1506.78 0.943901C1495.26 3.2077 1484.66 8.83772 1476.32 17.1255C1470.76 22.6569 1466.36 29.247 1463.38 36.5079C1460.4 43.7688 1458.9 51.5539 1458.97 59.405C1458.9 67.2489 1460.39 75.0281 1463.36 82.2856C1466.33 89.543 1470.71 96.1324 1476.26 101.667C1481.8 107.201 1488.4 111.568 1495.65 114.512C1502.9 117.456 1510.67 118.918 1518.49 118.81Z" fill="white"/>
<path d="M1568.94 180.624H1467.78V629.108H1568.94V180.624Z" fill="white"/>
<path d="M2085.69 0H1984.53V629.376H2085.69V0Z" fill="white"/>
<path d="M2517.03 240.832C2496.87 219.671 2472.63 202.828 2445.8 191.32C2418.96 179.813 2390.07 173.88 2360.88 173.88C2331.69 173.88 2302.81 179.813 2275.97 191.32C2249.13 202.828 2224.9 219.671 2204.73 240.832C2163.1 285.508 2140.66 344.814 2142.28 405.936C2140.62 467.245 2163.27 526.712 2205.27 571.307C2225.14 592.749 2249.29 609.762 2276.14 621.241C2303 632.72 2331.96 638.409 2361.15 637.938C2388.74 638.465 2416.1 632.796 2441.22 621.347C2454.02 614.951 2466.33 607.617 2478.06 599.404V630.177H2579.22V405.133C2580.9 344.289 2558.55 285.242 2517.03 240.832ZM2479.13 428.146C2478.95 452.702 2469.4 476.258 2452.43 493.973C2440.02 507.803 2425.19 519.231 2408.66 527.69C2387.35 537.82 2363.33 540.688 2340.25 535.856C2317.16 531.025 2296.29 518.76 2280.81 500.931C2268.74 488.377 2259.32 473.526 2253.08 457.255C2246.85 440.984 2243.93 423.624 2244.51 406.203C2243.91 388.74 2246.81 371.334 2253.05 355.016C2259.29 338.699 2268.72 323.802 2280.81 311.208C2290.71 299.596 2302.98 290.244 2316.8 283.782C2330.61 277.32 2345.64 273.898 2360.88 273.745C2376.69 273.217 2392.41 276.318 2406.85 282.811C2421.28 289.303 2434.04 299.016 2444.16 311.208C2467.23 337.374 2479.62 371.291 2478.86 406.203L2479.13 428.146Z" fill="white"/>
<path d="M3012.16 240.833C2992.34 219.167 2968.19 201.921 2941.29 190.211C2914.39 178.502 2885.34 172.592 2856.01 172.864C2828.43 172.4 2801.08 178.065 2775.94 189.455C2763.26 195.913 2751.04 203.245 2739.37 211.397V0H2636.87V405.134C2635.22 466.443 2657.87 525.91 2699.87 570.505C2720.11 591.572 2744.38 608.33 2771.24 619.776C2798.09 631.221 2826.97 637.121 2856.15 637.121C2885.32 637.121 2914.2 631.221 2941.06 619.776C2967.91 608.33 2992.18 591.572 3012.43 570.505C3033.27 548.457 3049.57 522.498 3060.38 494.119C3071.19 465.74 3076.3 435.499 3075.42 405.134C3076.84 344.134 3054.09 285.056 3012.16 240.833ZM2738.04 382.924C2738.32 358.389 2747.86 334.871 2764.73 317.096C2777.26 303.402 2792.07 291.994 2808.5 283.38C2823.56 276.459 2839.99 273.073 2856.55 273.479C2871.79 273.631 2886.82 277.053 2900.63 283.515C2914.44 289.977 2926.72 299.329 2936.62 310.942C2948.65 323.57 2958.06 338.473 2964.29 354.782C2970.53 371.091 2973.46 388.48 2972.92 405.937C2973.26 423.254 2970.18 440.467 2963.86 456.586C2957.54 472.705 2948.1 487.412 2936.09 499.861C2926.21 511.523 2913.95 520.925 2900.13 527.434C2886.32 533.942 2871.27 537.406 2856.01 537.592C2840.19 538.008 2824.48 534.83 2810.06 528.296C2795.64 521.762 2782.88 512.041 2772.73 499.861C2749.78 473.751 2737.49 439.928 2738.3 405.134L2738.04 382.924Z" fill="white"/>
<path d="M3392.52 372.755H3388.24C3345.8 361.516 3303.1 349.742 3261.19 337.968C3219.29 326.194 3222.22 313.082 3222.22 308.533C3221.77 305.081 3222.17 301.57 3223.38 298.306C3224.59 295.042 3226.57 292.123 3229.16 289.802C3235.59 284.417 3243.75 281.563 3252.12 281.774H3454.17V180.624H3249.71C3232 179.821 3214.32 182.712 3197.78 189.115C3181.24 195.517 3166.2 205.292 3153.62 217.82C3142.03 229.731 3132.91 243.841 3126.82 259.325C3120.72 274.809 3117.77 291.356 3118.12 307.998C3118.12 345.996 3133.87 397.374 3209.14 426.274H3212.61L3336.46 460.525C3378.9 475.243 3378.9 493.439 3378.9 501.467C3379.2 504.985 3378.57 508.52 3377.07 511.715C3375.57 514.91 3373.26 517.651 3370.36 519.663C3355.9 528.004 3339.16 531.475 3322.58 529.564H3118.39V629.376H3315.38C3357.33 631.921 3399.02 621.052 3434.42 598.335C3450.35 586.792 3463.16 571.449 3471.69 553.694C3480.22 535.94 3484.2 516.334 3483.27 496.65C3483.45 468.96 3474.71 441.949 3458.37 419.63C3442.02 397.31 3418.92 380.872 3392.52 372.755Z" fill="white"/>
<path d="M1872.16 322.715H1673.57V422.259H1872.16V322.715Z" fill="white"/>
<path d="M326.173 435.372C375.088 435.381 422.184 453.96 457.988 487.372C493.791 520.784 515.646 566.549 519.154 615.461C519.29 619.012 520.776 622.376 523.307 624.864C525.838 627.352 529.223 628.775 532.767 628.84H637.932C639.836 628.842 641.72 628.458 643.472 627.712C645.224 626.966 646.808 625.873 648.129 624.499C649.45 623.125 650.48 621.498 651.159 619.715C651.838 617.932 652.151 616.03 652.079 614.123C649.483 529.053 613.905 448.35 552.904 389.158C491.903 329.966 410.286 296.951 325.391 297.125C240.496 297.299 159.014 330.649 98.2555 390.091C37.4967 449.533 2.24896 530.381 0.000563838 615.461C-0.0348145 617.358 0.303069 619.245 0.994915 621.011C1.68676 622.778 2.71901 624.391 4.03271 625.757C5.34641 627.124 6.91581 628.218 8.65127 628.977C10.3867 629.735 12.2543 630.143 14.1472 630.178H119.579C121.46 630.144 123.316 629.734 125.037 628.972C126.758 628.21 128.31 627.112 129.602 625.742C130.895 624.371 131.901 622.756 132.564 620.991C133.226 619.225 133.53 617.345 133.459 615.461C136.903 566.572 158.701 520.809 194.461 487.391C230.221 453.973 277.286 435.385 326.173 435.372Z" fill="#3355FF"/>
<path d="M624.052 69.5742H28.2932C12.6673 69.5742 0 82.2735 0 97.9389V172.597C0 188.262 12.6673 200.962 28.2932 200.962H624.052C639.678 200.962 652.345 188.262 652.345 172.597V97.9389C652.345 82.2735 639.678 69.5742 624.052 69.5742Z" fill="#3355FF"/>
</g>
<defs>
<clipPath id="clip0_44_41">
<rect width="3483" height="810" fill="white"/>
</clipPath>
</defs>
</svg>
