<svg width="1532" height="474" viewBox="0 0 1532 474" fill="none" xmlns="http://www.w3.org/2000/svg">
<path d="M230.442 336.543C265 336.549 298.273 349.659 323.568 373.234C348.863 396.81 364.303 429.103 366.782 463.615C366.878 466.121 367.928 468.495 369.716 470.25C371.504 472.006 373.896 473.01 376.399 473.056H450.698C452.043 473.057 453.374 472.786 454.612 472.26C455.85 471.733 456.969 470.962 457.902 469.993C458.836 469.023 459.564 467.875 460.043 466.617C460.523 465.359 460.744 464.017 460.693 462.671C458.859 402.645 433.724 345.7 390.627 303.934C347.53 262.168 289.867 238.872 229.889 238.995C169.911 239.118 112.345 262.65 69.4186 304.592C26.4927 346.535 1.59026 403.582 0.00177823 463.615C-0.0232164 464.954 0.215497 466.285 0.704284 467.532C1.19307 468.778 1.92235 469.916 2.85048 470.881C3.7786 471.845 4.88738 472.617 6.11348 473.152C7.33958 473.687 8.65897 473.975 9.99631 474H84.4838C85.8127 473.976 87.1235 473.687 88.3394 473.149C89.5552 472.611 90.6518 471.837 91.5649 470.869C92.4781 469.902 93.1894 468.763 93.6572 467.517C94.1251 466.272 94.3402 464.945 94.2898 463.615C96.7227 429.119 112.123 396.828 137.387 373.248C162.652 349.668 195.903 336.552 230.442 336.543Z" fill="#3355FF"/>
<path d="M440.891 78.4277H19.9891C8.94941 78.4277 0 87.3885 0 98.4421V151.121C0 162.175 8.94941 171.136 19.9891 171.136H440.891C451.93 171.136 460.88 162.175 460.88 151.121V98.4421C460.88 87.3885 451.93 78.4277 440.891 78.4277Z" fill="#3355FF"/>
<path d="M878.068 203.182L786.534 465H704.716L613.182 203.182H689.886L744.261 390.511H746.989L801.193 203.182H878.068ZM1025.09 470.114C998.608 470.114 975.71 464.489 956.392 453.239C937.188 441.875 922.358 426.08 911.903 405.852C901.449 385.511 896.222 361.932 896.222 335.114C896.222 308.068 901.449 284.432 911.903 264.205C922.358 243.864 937.188 228.068 956.392 216.818C975.71 205.455 998.608 199.773 1025.09 199.773C1051.56 199.773 1074.4 205.455 1093.61 216.818C1112.93 228.068 1127.81 243.864 1138.27 264.205C1148.72 284.432 1153.95 308.068 1153.95 335.114C1153.95 361.932 1148.72 385.511 1138.27 405.852C1127.81 426.08 1112.93 441.875 1093.61 453.239C1074.4 464.489 1051.56 470.114 1025.09 470.114ZM1025.43 413.864C1037.47 413.864 1047.53 410.455 1055.6 403.636C1063.66 396.705 1069.74 387.273 1073.84 375.341C1078.04 363.409 1080.14 349.83 1080.14 334.602C1080.14 319.375 1078.04 305.795 1073.84 293.864C1069.74 281.932 1063.66 272.5 1055.6 265.568C1047.53 258.636 1037.47 255.17 1025.43 255.17C1013.27 255.17 1003.04 258.636 994.744 265.568C986.563 272.5 980.369 281.932 976.165 293.864C972.074 305.795 970.028 319.375 970.028 334.602C970.028 349.83 972.074 363.409 976.165 375.341C980.369 387.273 986.563 396.705 994.744 403.636C1003.04 410.455 1013.27 413.864 1025.43 413.864ZM1252.47 203.182L1300.54 294.716L1349.8 203.182H1424.29L1348.44 334.091L1426.34 465H1352.19L1300.54 374.489L1249.74 465H1174.74L1252.47 334.091L1177.47 203.182H1252.47Z" fill="black"/>
</svg>
